<svg xmlns="http://www.w3.org/2000/svg" width="1440" height="900"><path d="M897,300L1003,248L832,77Z" fill="#8abbbb" stroke="#8abbbb" stroke-width="1.51"/><path d="M1003,248L1148,131L832,77Z" fill="#93b2b5" stroke="#93b2b5" stroke-width="1.51"/><path d="M832,77L580,328L897,300Z" fill="#8ac8bd" stroke="#8ac8bd" stroke-width="1.51"/><path d="M646,-179L655,34L832,77Z" fill="#aedbcf" stroke="#aedbcf" stroke-width="1.51"/><path d="M1148,131L1145,-25L832,77Z" fill="#9caeba" stroke="#9caeba" stroke-width="1.51"/><path d="M1179,42L1145,-25L1148,131Z" fill="#9b9fb5" stroke="#9b9fb5" stroke-width="1.51"/><path d="M1145,-25L918,-176L832,77Z" fill="#a2bcc9" stroke="#a2bcc9" stroke-width="1.51"/><path d="M655,34L580,328L832,77Z" fill="#a3d6bb" stroke="#a3d6bb" stroke-width="1.51"/><path d="M1003,248L1329,244L1148,131Z" fill="#8797ac" stroke="#8797ac" stroke-width="1.51"/><path d="M1148,131L1329,244L1179,42Z" fill="#9394a9" stroke="#9394a9" stroke-width="1.51"/><path d="M1179,42L1301,-173L1145,-25Z" fill="#9e99bb" stroke="#9e99bb" stroke-width="1.51"/><path d="M1129,558L1329,244L1003,248Z" fill="#5989af" stroke="#5989af" stroke-width="1.51"/><path d="M655,34L474,108L580,328Z" fill="#aeddb8" stroke="#aeddb8" stroke-width="1.51"/><path d="M472,-173L474,108L655,34Z" fill="#c3e7ca" stroke="#c3e7ca" stroke-width="1.51"/><path d="M918,-176L646,-179L832,77Z" fill="#a9d2ce" stroke="#a9d2ce" stroke-width="1.51"/><path d="M897,300L1129,558L1003,248Z" fill="#529bb8" stroke="#529bb8" stroke-width="1.51"/><path d="M813,647L1129,558L897,300Z" fill="#2c94be" stroke="#2c94be" stroke-width="1.51"/><path d="M672,637L813,647L897,300Z" fill="#31a1c2" stroke="#31a1c2" stroke-width="1.51"/><path d="M474,108L482,343L580,328Z" fill="#a0d8b8" stroke="#a0d8b8" stroke-width="1.51"/><path d="M672,637L897,300L580,328Z" fill="#4db9c3" stroke="#4db9c3" stroke-width="1.51"/><path d="M990,-330L774,-309L918,-176Z" fill="#a4c7cd" stroke="#a4c7cd" stroke-width="1.51"/><path d="M918,-176L774,-309L646,-179Z" fill="#aad4cf" stroke="#aad4cf" stroke-width="1.51"/><path d="M465,614L672,637L580,328Z" fill="#58b3bf" stroke="#58b3bf" stroke-width="1.51"/><path d="M1145,-25L990,-330L918,-176Z" fill="#a0b4c6" stroke="#a0b4c6" stroke-width="1.51"/><path d="M1301,-173L990,-330L1145,-25Z" fill="#9ea2bf" stroke="#9ea2bf" stroke-width="1.51"/><path d="M1473,-54L1301,-173L1179,42Z" fill="#978eae" stroke="#978eae" stroke-width="1.51"/><path d="M1129,558L1211,610L1329,244Z" fill="#3b75ae" stroke="#3b75ae" stroke-width="1.51"/><path d="M1186,726L1211,610L1129,558Z" fill="#275da7" stroke="#275da7" stroke-width="1.51"/><path d="M813,647L839,726L1129,558Z" fill="#237ab6" stroke="#237ab6" stroke-width="1.51"/><path d="M672,637L839,726L813,647Z" fill="#3285b6" stroke="#3285b6" stroke-width="1.51"/><path d="M386,-287L472,-173L520,-407Z" fill="#d1ecc8" stroke="#d1ecc8" stroke-width="1.51"/><path d="M646,-179L472,-173L655,34Z" fill="#bce3cc" stroke="#bce3cc" stroke-width="1.51"/><path d="M1329,244L1473,-54L1179,42Z" fill="#918ba0" stroke="#918ba0" stroke-width="1.51"/><path d="M1570,186L1473,-54L1329,244Z" fill="#818086" stroke="#818086" stroke-width="1.51"/><path d="M1581,292L1570,186L1329,244Z" fill="#6c7987" stroke="#6c7987" stroke-width="1.51"/><path d="M1070,796L1186,726L1129,558Z" fill="#2555a4" stroke="#2555a4" stroke-width="1.51"/><path d="M672,637L616,876L839,726Z" fill="#3f7caf" stroke="#3f7caf" stroke-width="1.51"/><path d="M482,343L465,614L580,328Z" fill="#72c6be" stroke="#72c6be" stroke-width="1.51"/><path d="M262,332L465,614L482,343Z" fill="#8acebc" stroke="#8acebc" stroke-width="1.51"/><path d="M262,332L482,343L474,108Z" fill="#b4e1b6" stroke="#b4e1b6" stroke-width="1.51"/><path d="M998,1067L1070,796L839,726Z" fill="#1f4f90" stroke="#1f4f90" stroke-width="1.51"/><path d="M839,726L1070,796L1129,558Z" fill="#2464ab" stroke="#2464ab" stroke-width="1.51"/><path d="M178,96L262,332L474,108Z" fill="#d5efb3" stroke="#d5efb3" stroke-width="1.51"/><path d="M1581,292L1329,244L1402,686Z" fill="#3b698c" stroke="#3b698c" stroke-width="1.51"/><path d="M1301,-173L1329,-345L990,-330Z" fill="#9e9abb" stroke="#9e9abb" stroke-width="1.51"/><path d="M1590,-367L1329,-345L1301,-173Z" fill="#8d879e" stroke="#8d879e" stroke-width="1.51"/><path d="M1402,686L1329,244L1211,610Z" fill="#2f66a1" stroke="#2f66a1" stroke-width="1.51"/><path d="M183,-21L178,96L474,108Z" fill="#e7f6bb" stroke="#e7f6bb" stroke-width="1.51"/><path d="M520,-407L472,-173L646,-179Z" fill="#c1e6ca" stroke="#c1e6ca" stroke-width="1.51"/><path d="M520,-407L646,-179L774,-309Z" fill="#b6dfcd" stroke="#b6dfcd" stroke-width="1.51"/><path d="M1329,-345L520,-407L990,-330Z" fill="#a2bfcb" stroke="#a2bfcb" stroke-width="1.51"/><path d="M990,-330L520,-407L774,-309Z" fill="#abd5ce" stroke="#abd5ce" stroke-width="1.51"/><path d="M1186,726L1402,686L1211,610Z" fill="#25499d" stroke="#25499d" stroke-width="1.51"/><path d="M1309,935L1402,686L1186,726Z" fill="#22328e" stroke="#22328e" stroke-width="1.51"/><path d="M183,-21L474,108L472,-173Z" fill="#e0f3c7" stroke="#e0f3c7" stroke-width="1.51"/><path d="M465,614L453,753L672,637Z" fill="#5d96b3" stroke="#5d96b3" stroke-width="1.51"/><path d="M194,502L453,753L465,614Z" fill="#83acb5" stroke="#83acb5" stroke-width="1.51"/><path d="M1581,292L1638,248L1570,186Z" fill="#6b7987" stroke="#6b7987" stroke-width="1.51"/><path d="M1570,186L1646,49L1473,-54Z" fill="#86838e" stroke="#86838e" stroke-width="1.51"/><path d="M1473,-54L1590,-367L1301,-173Z" fill="#898498" stroke="#898498" stroke-width="1.51"/><path d="M1841,497L1638,248L1581,292Z" fill="#4a6e89" stroke="#4a6e89" stroke-width="1.51"/><path d="M386,-287L183,-21L472,-173Z" fill="#e5f5c6" stroke="#e5f5c6" stroke-width="1.51"/><path d="M1638,248L1646,49L1570,186Z" fill="#7b7f86" stroke="#7b7f86" stroke-width="1.51"/><path d="M453,753L616,876L672,637Z" fill="#5782ad" stroke="#5782ad" stroke-width="1.51"/><path d="M262,332L194,502L465,614Z" fill="#93cbbc" stroke="#93cbbc" stroke-width="1.51"/><path d="M-67,243L194,502L262,332Z" fill="#b8e1bd" stroke="#b8e1bd" stroke-width="1.51"/><path d="M616,876L731,960L839,726Z" fill="#346a9a" stroke="#346a9a" stroke-width="1.51"/><path d="M1641,848L1557,657L1402,686Z" fill="#17337a" stroke="#17337a" stroke-width="1.51"/><path d="M1402,686L1557,657L1581,292Z" fill="#1e578b" stroke="#1e578b" stroke-width="1.51"/><path d="M1309,935L1186,726L1070,796Z" fill="#22398f" stroke="#22398f" stroke-width="1.51"/><path d="M998,1067L1309,935L1070,796Z" fill="#17377d" stroke="#17377d" stroke-width="1.51"/><path d="M520,-407L172,-281L386,-287Z" fill="#e3f4c6" stroke="#e3f4c6" stroke-width="1.51"/><path d="M386,-287L172,-281L183,-21Z" fill="#eff9c5" stroke="#eff9c5" stroke-width="1.51"/><path d="M183,-21L-18,24L178,96Z" fill="#f7fcc7" stroke="#f7fcc7" stroke-width="1.51"/><path d="M731,960L998,1067L839,726Z" fill="#20588b" stroke="#20588b" stroke-width="1.51"/><path d="M616,876L709,1019L731,960Z" fill="#34678c" stroke="#34678c" stroke-width="1.51"/><path d="M477,1132L709,1019L616,876Z" fill="#436c8a" stroke="#436c8a" stroke-width="1.51"/><path d="M798,1135L709,1019L671,1230Z" fill="#2d658d" stroke="#2d658d" stroke-width="1.51"/><path d="M1329,-345L1590,-367L520,-407Z" fill="#9ea2bf" stroke="#9ea2bf" stroke-width="1.51"/><path d="M1709,-318L1590,-367L1473,-54Z" fill="#898498" stroke="#898498" stroke-width="1.51"/><path d="M1646,49L1762,-62L1473,-54Z" fill="#898498" stroke="#898498" stroke-width="1.51"/><path d="M2031,149L1762,-62L1646,49Z" fill="#878391" stroke="#878391" stroke-width="1.51"/><path d="M2031,149L1646,49L1638,248Z" fill="#7d7f86" stroke="#7d7f86" stroke-width="1.51"/><path d="M798,1135L998,1067L731,960Z" fill="#225a8b" stroke="#225a8b" stroke-width="1.51"/><path d="M1296,1278L1425,949L1309,935Z" fill="#102368" stroke="#102368" stroke-width="1.51"/><path d="M1309,935L1425,949L1402,686Z" fill="#13256d" stroke="#13256d" stroke-width="1.51"/><path d="M-101,-120L-18,24L183,-21Z" fill="#feffd6" stroke="#feffd6" stroke-width="1.51"/><path d="M178,96L-67,243L262,332Z" fill="#ddf2b8" stroke="#ddf2b8" stroke-width="1.51"/><path d="M1762,-62L1709,-318L1473,-54Z" fill="#898498" stroke="#898498" stroke-width="1.51"/><path d="M998,1067L1094,1207L1309,935Z" fill="#17377c" stroke="#17377c" stroke-width="1.51"/><path d="M709,1019L798,1135L731,960Z" fill="#2b638c" stroke="#2b638c" stroke-width="1.51"/><path d="M477,1132L616,876L295,1070Z" fill="#5d7488" stroke="#5d7488" stroke-width="1.51"/><path d="M194,502L71,706L453,753Z" fill="#93aab2" stroke="#93aab2" stroke-width="1.51"/><path d="M-18,24L-67,243L178,96Z" fill="#f3fbc2" stroke="#f3fbc2" stroke-width="1.51"/><path d="M1641,848L1758,641L1557,657Z" fill="#17357c" stroke="#17357c" stroke-width="1.51"/><path d="M1557,657L1758,641L1581,292Z" fill="#21598b" stroke="#21598b" stroke-width="1.51"/><path d="M-67,243L-19,526L194,502Z" fill="#b1dcca" stroke="#b1dcca" stroke-width="1.51"/><path d="M-19,526L71,706L194,502Z" fill="#a0c1c3" stroke="#a0c1c3" stroke-width="1.51"/><path d="M1758,641L1841,497L1581,292Z" fill="#2a618c" stroke="#2a618c" stroke-width="1.51"/><path d="M1425,949L1641,848L1402,686Z" fill="#12246b" stroke="#12246b" stroke-width="1.51"/><path d="M2025,821L1930,359L1841,497Z" fill="#1b558a" stroke="#1b558a" stroke-width="1.51"/><path d="M1762,-62L1847,-276L1709,-318Z" fill="#898498" stroke="#898498" stroke-width="1.51"/><path d="M2031,149L1896,-141L1762,-62Z" fill="#898498" stroke="#898498" stroke-width="1.51"/><path d="M1841,497L1930,359L1638,248Z" fill="#456d8a" stroke="#456d8a" stroke-width="1.51"/><path d="M2025,821L1841,497L1758,641Z" fill="#174181" stroke="#174181" stroke-width="1.51"/><path d="M295,1070L616,876L453,753Z" fill="#5e7588" stroke="#5e7588" stroke-width="1.51"/><path d="M-18,24L-308,84L-67,243Z" fill="#f6fbc5" stroke="#f6fbc5" stroke-width="1.51"/><path d="M172,-281L-101,-120L183,-21Z" fill="#fbfed0" stroke="#fbfed0" stroke-width="1.51"/><path d="M798,1135L1094,1207L998,1067Z" fill="#1a4c87" stroke="#1a4c87" stroke-width="1.51"/><path d="M1759,1173L1790,967L1641,848Z" fill="#081d58" stroke="#081d58" stroke-width="1.51"/><path d="M671,1230L1094,1207L798,1135Z" fill="#20588b" stroke="#20588b" stroke-width="1.51"/><path d="M1896,-141L1847,-276L1762,-62Z" fill="#898498" stroke="#898498" stroke-width="1.51"/><path d="M1709,-318L1847,-276L1590,-367Z" fill="#898498" stroke="#898498" stroke-width="1.51"/><path d="M477,1132L671,1230L709,1019Z" fill="#406b8b" stroke="#406b8b" stroke-width="1.51"/><path d="M477,1132L215,1287L671,1230Z" fill="#5e7588" stroke="#5e7588" stroke-width="1.51"/><path d="M92,925L295,1070L453,753Z" fill="#787e87" stroke="#787e87" stroke-width="1.51"/><path d="M71,706L92,925L453,753Z" fill="#938ea4" stroke="#938ea4" stroke-width="1.51"/><path d="M-19,526L-26,732L71,706Z" fill="#9fafc3" stroke="#9fafc3" stroke-width="1.51"/><path d="M-276,554L-26,732L-19,526Z" fill="#a2bcc9" stroke="#a2bcc9" stroke-width="1.51"/><path d="M-276,554L-19,526L-67,243Z" fill="#afdbce" stroke="#afdbce" stroke-width="1.51"/><path d="M-26,732L92,925L71,706Z" fill="#9c92b4" stroke="#9c92b4" stroke-width="1.51"/><path d="M1896,-141L2031,149L1847,-276Z" fill="#898498" stroke="#898498" stroke-width="1.51"/><path d="M1930,359L2031,149L1638,248Z" fill="#687887" stroke="#687887" stroke-width="1.51"/><path d="M-101,-120L-308,84L-18,24Z" fill="#ffffd9" stroke="#ffffd9" stroke-width="1.51"/><path d="M172,-281L-177,-238L-101,-120Z" fill="#ffffd9" stroke="#ffffd9" stroke-width="1.51"/><path d="M-128,-412L-177,-238L172,-281Z" fill="#ffffd9" stroke="#ffffd9" stroke-width="1.51"/><path d="M671,1230L1296,1278L1094,1207Z" fill="#184483" stroke="#184483" stroke-width="1.51"/><path d="M1094,1207L1296,1278L1309,935Z" fill="#172b77" stroke="#172b77" stroke-width="1.51"/><path d="M520,-407L-128,-412L172,-281Z" fill="#f5fbc5" stroke="#f5fbc5" stroke-width="1.51"/><path d="M1759,1173L1641,848L1425,949Z" fill="#081d58" stroke="#081d58" stroke-width="1.51"/><path d="M1641,848L1790,967L1758,641Z" fill="#13256d" stroke="#13256d" stroke-width="1.51"/><path d="M1930,359L2025,821L2031,149Z" fill="#30668c" stroke="#30668c" stroke-width="1.51"/><path d="M-317,-98L-101,-120L-177,-238Z" fill="#ffffd9" stroke="#ffffd9" stroke-width="1.51"/><path d="M-317,-98L-308,84L-101,-120Z" fill="#ffffd9" stroke="#ffffd9" stroke-width="1.51"/><path d="M-26,732L-94,997L92,925Z" fill="#8c869c" stroke="#8c869c" stroke-width="1.51"/><path d="M-369,352L-276,554L-67,243Z" fill="#bae1cc" stroke="#bae1cc" stroke-width="1.51"/><path d="M-128,-412L-317,-98L-177,-238Z" fill="#ffffd9" stroke="#ffffd9" stroke-width="1.51"/><path d="M-317,-98L-369,352L-308,84Z" fill="#f6fcc5" stroke="#f6fcc5" stroke-width="1.51"/><path d="M-308,84L-369,352L-67,243Z" fill="#e3f4c6" stroke="#e3f4c6" stroke-width="1.51"/><path d="M92,925L22,1128L295,1070Z" fill="#84828b" stroke="#84828b" stroke-width="1.51"/><path d="M295,1070L215,1287L477,1132Z" fill="#747c87" stroke="#747c87" stroke-width="1.51"/><path d="M-274,848L-94,997L-26,732Z" fill="#908aa3" stroke="#908aa3" stroke-width="1.51"/><path d="M-274,848L-26,732L-276,554Z" fill="#9ea3bf" stroke="#9ea3bf" stroke-width="1.51"/><path d="M1997,1101L2025,821L1790,967Z" fill="#081d58" stroke="#081d58" stroke-width="1.51"/><path d="M1790,967L2025,821L1758,641Z" fill="#142670" stroke="#142670" stroke-width="1.51"/><path d="M-94,997L22,1128L92,925Z" fill="#898497" stroke="#898497" stroke-width="1.51"/><path d="M1296,1278L1565,1294L1425,949Z" fill="#091e5a" stroke="#091e5a" stroke-width="1.51"/><path d="M22,1128L215,1287L295,1070Z" fill="#838187" stroke="#838187" stroke-width="1.51"/><path d="M671,1230L215,1287L1296,1278Z" fill="#2d648d" stroke="#2d648d" stroke-width="1.51"/><path d="M1296,1278L215,1287L1565,1294Z" fill="#184382" stroke="#184382" stroke-width="1.51"/><path d="M1565,1294L1759,1173L1425,949Z" fill="#081d58" stroke="#081d58" stroke-width="1.51"/><path d="M-369,352L-274,848L-276,554Z" fill="#a3c1cb" stroke="#a3c1cb" stroke-width="1.51"/><path d="M-94,997L-185,1207L22,1128Z" fill="#898498" stroke="#898498" stroke-width="1.51"/><path d="M22,1128L-185,1207L215,1287Z" fill="#888496" stroke="#888496" stroke-width="1.51"/><path d="M-274,848L-261,981L-94,997Z" fill="#898498" stroke="#898498" stroke-width="1.51"/><path d="M-369,352L-261,981L-274,848Z" fill="#9ea0be" stroke="#9ea0be" stroke-width="1.51"/><path d="M1966,1219L1997,1101L1759,1173Z" fill="#081d58" stroke="#081d58" stroke-width="1.51"/><path d="M1759,1173L1997,1101L1790,967Z" fill="#081d58" stroke="#081d58" stroke-width="1.51"/><path d="M1565,1294L1966,1219L1759,1173Z" fill="#081d58" stroke="#081d58" stroke-width="1.51"/><path d="M-261,981L-185,1207L-94,997Z" fill="#898498" stroke="#898498" stroke-width="1.51"/></svg>